# Blender v2.78 (sub 5) OBJ File: 'lathe.blend'
# www.blender.org
mtllib base.mtl
o base
v 0.000000 0.000000 -0.187750
v 0.000000 0.500000 -0.187750
v 0.000000 0.125000 -1.000000
v 0.000000 1.000000 -1.000000
v 1.000000 0.000000 -0.187750
v 1.000000 0.500000 -0.187750
v 1.000000 0.000000 -1.000000
v 1.000000 1.000000 -1.000000
v 0.200000 2.000000 -0.187750
v 0.200000 2.000000 -1.000000
v 1.000000 2.000000 -1.000000
v 1.000000 2.000000 -0.187750
v 0.000000 0.000000 2.000000
v 0.000000 0.500000 2.000000
v 1.000000 0.500000 2.000000
v 0.000000 0.000000 -1.000000
v 0.000000 0.125000 -0.187750
v 1.000000 0.125000 -0.187750
v 0.000000 0.125000 2.000000
v 1.000000 0.125000 -1.000000
v 1.000000 0.125000 2.000000
v 0.000000 0.000000 1.377499
v 0.200000 0.000000 1.377499
v 0.200000 0.000000 2.000000
v 0.000000 0.125000 1.377499
v 0.200000 0.125000 1.377499
v 0.200000 0.125000 2.000000
v 1.000000 0.000000 2.000000
v 0.800000 0.000000 2.000000
v 0.800000 0.000000 1.377499
v 1.000000 0.000000 1.377499
v 0.800000 0.125000 2.000000
v 0.800000 0.125000 1.377499
v 1.000000 0.125000 1.377499
v 0.200000 0.125000 -0.187750
v 0.800000 0.125000 -0.187750
v 0.200000 0.000000 -0.187750
v 0.800000 0.000000 -0.187750
v 0.200000 0.000000 -1.000000
v 0.800000 0.000000 -1.000000
v 0.200000 0.125000 -1.000000
v 0.800000 0.125000 -1.000000
v 0.200000 1.000000 -1.000000
v 0.800000 1.000000 -1.000000
v 0.100000 2.000000 -1.000000
v 0.800000 2.000000 -1.000000
v 0.100000 2.000000 -0.187750
v 0.800000 2.000000 -0.187750
v 0.200000 0.500000 -0.187750
v 0.800000 0.500000 -0.187750
v 0.200000 0.500000 2.000000
v 0.800000 0.500000 2.000000
v 1.000000 1.000000 -0.187750
v 0.200000 1.000000 -0.187750
v 0.800000 1.000000 -0.187750
v 0.000000 1.000000 -0.187750
v 0.000000 0.500000 -1.000000
v 1.000000 0.500000 -1.000000
v 0.200000 0.500000 -1.000000
v 0.800000 0.500000 -1.000000
v 0.000000 0.500000 1.377499
v 1.000000 0.500000 1.377499
v 0.200000 0.500000 1.377499
v 0.800000 0.500000 1.377499
v 0.800000 1.300000 1.377499
v 0.800000 1.300000 2.000000
v 0.200000 1.300000 1.377499
v 1.000000 1.000000 1.377499
v 0.200000 1.300000 2.000000
v 0.000000 1.000000 1.377499
v 1.000000 1.000000 2.000000
v 0.000000 1.000000 2.000000
v 0.800000 2.000000 1.377499
v 0.200000 2.000000 1.377499
v 0.800000 1.900000 2.000000
v 0.200000 1.900000 2.000000
v 0.700000 0.200000 1.300000
v 0.300000 0.200000 1.300000
v 0.700000 0.200000 -0.100000
v 0.300000 0.200000 -0.100000
vt 0.523438 0.250000
vt 0.523438 0.265625
vt 0.500000 0.265625
vt 0.500000 0.250000
vt 0.601562 0.265625
vt 0.601562 0.250000
vt 0.625000 0.250000
vt 0.625000 0.265625
vt -0.000000 0.757812
vt 0.078125 0.757812
vt 0.078125 0.781250
vt -0.000000 0.781250
vt 0.125000 0.312500
vt 0.125000 0.375000
vt 0.093750 0.375000
vt 0.093750 0.312500
vt 0.273438 0.640625
vt 0.351562 0.640625
vt 0.351562 0.664062
vt 0.273438 0.664062
vt 0.500000 0.015625
vt 0.500000 0.000000
vt 0.523438 0.000000
vt 0.523438 0.015625
vt 0.421875 0.015625
vt 0.421875 0.000000
vt 0.421875 0.265625
vt 0.500000 0.265625
vt 0.500000 0.250000
vt 0.421875 0.250000
vt 0.617188 -0.000000
vt 0.617188 0.015625
vt 0.593750 0.015625
vt 0.593750 -0.000000
vt 0.273438 0.781250
vt 0.273438 0.757812
vt 0.351562 0.757812
vt 0.351562 0.781250
vt 0.078125 0.664062
vt -0.000000 0.664062
vt -0.000000 0.640625
vt 0.078125 0.640625
vt 0.023438 0.250000
vt 0.023438 0.265625
vt 0.000000 0.265625
vt 0.000000 0.250000
vt 0.125000 0.250000
vt 0.125000 0.265625
vt 0.226562 0.265625
vt 0.226562 0.250000
vt 0.023438 0.015625
vt 0.000000 0.015625
vt 0.000000 0.000000
vt 0.023438 0.000000
vt 0.101562 0.015625
vt 0.101562 0.000000
vt 0.125000 0.000000
vt 0.125000 0.015625
vt 0.226562 0.000000
vt 0.226562 0.015625
vt 0.226562 0.062500
vt 0.125000 0.062500
vt 0.101562 0.062500
vt 0.023438 0.062500
vt 0.000000 0.062500
vt 0.101562 0.125000
vt 0.125000 0.125000
vt 0.023438 0.125000
vt -0.000000 0.125000
vt 0.000000 0.375000
vt 0.023438 0.375000
vt 0.023438 0.500000
vt 0.011719 0.500000
vt 0.226562 0.125000
vt 0.101562 0.250000
vt 0.023438 0.250000
vt -0.000000 0.312500
vt 0.023438 0.312500
vt 0.023438 0.601562
vt 0.023438 0.500000
vt 0.011719 0.500000
vt 0.011719 0.601562
vt 0.000000 0.250000
vt 0.226562 0.500000
vt 0.226562 0.375000
vt 0.125000 0.375000
vt 0.125000 0.500000
vt 0.125000 0.601562
vt 0.093750 0.500000
vt 0.093750 0.601562
vt 0.125000 0.312500
vt 0.226562 0.312500
vt 0.523438 0.062500
vt 0.500000 0.062500
vt 0.593750 0.062500
vt 0.617188 0.062500
vt 0.101562 0.265625
vt 0.101562 0.250000
vt 0.125000 0.250000
vt 0.125000 0.265625
vt 0.421875 0.062500
vt 0.523438 0.164082
vt 0.593750 0.164062
vt 0.593750 0.239063
vt 0.523438 0.239063
vt 0.500000 0.126172
vt 0.617188 0.126172
vt 0.500000 0.125000
vt 0.421875 0.125000
vt 0.500000 0.312500
vt 0.421875 0.312500
vt 0.273438 0.757812
vt 0.273438 0.781250
vt 0.078125 0.781250
vt 0.078125 0.757812
vt 0.273438 0.664062
vt 0.078125 0.664062
vt 0.078125 0.640625
vt 0.273438 0.640625
vt 0.875000 0.179688
vt 0.875000 0.203125
vt 0.679688 0.203125
vt 0.679688 0.179688
vt 0.875000 0.171875
vt 0.679688 0.171875
vt 0.679688 0.148438
vt 0.875000 0.148438
vt 0.867188 0.101562
vt 0.875000 0.132812
vt 0.679688 0.132812
vt 0.687500 0.101562
vt 0.500000 0.414062
vt 0.500000 0.375000
vt 0.421875 0.375000
vt 0.421875 0.414062
vt 0.601562 0.312500
vt 0.625000 0.312500
vt 0.625000 0.376172
vt 0.601562 0.414062
vt 0.500000 0.164062
vt 0.421875 0.164062
vt 0.421875 0.250000
vt 0.500000 0.239063
vt 0.500000 0.312500
vt 0.523438 0.312500
vt 0.523438 0.414062
vt 0.500000 0.376250
vt 0.078125 0.750000
vt -0.000000 0.750000
vt -0.000000 0.671875
vt 0.078125 0.671875
vt 0.421875 0.500000
vt 0.500000 0.489062
vt 0.867188 0.090625
vt 0.867188 0.041016
vt 0.687500 0.041016
vt 0.687500 0.090625
vt 0.679688 0.031250
vt 0.875000 0.031250
vt 0.867188 -0.000000
vt 0.687500 0.000000
vt 0.093750 0.500000
vt 0.113281 0.250000
vt 0.125000 0.500000
vt 0.687500 0.090625
vt 0.656250 0.101562
vt 0.656250 0.031250
vt 0.687500 0.041016
vt 0.867188 0.090625
vt 0.867188 0.041016
vt 0.898438 0.031250
vt 0.898438 0.101562
vt 0.500000 0.500000
vt 0.500000 0.601562
vt 0.421875 0.601562
vt 0.421875 0.500000
vt 0.601562 0.500000
vt 0.523438 0.500000
vt 0.351562 0.750000
vt 0.273438 0.750000
vt 0.273438 0.671875
vt 0.351562 0.671875
vt 0.351562 0.617188
vt 0.351562 0.632812
vt 0.273438 0.632812
vt 0.273438 0.617188
vt 0.273438 0.789062
vt 0.351562 0.789062
vt 0.351562 0.804688
vt 0.273438 0.804688
vt 0.273438 0.750000
vt 0.273438 0.671875
vt 0.078125 0.671875
vt 0.078125 0.750000
vt -0.000000 0.789062
vt 0.078125 0.789062
vt 0.078125 0.804688
vt -0.000000 0.804688
vt 0.078125 0.632812
vt -0.000000 0.632812
vt -0.000000 0.617188
vt 0.078125 0.617188
vt 0.226562 0.250000
vt 0.125000 0.250000
vn 0.0000 0.0000 -1.0000
vn 0.0000 -1.0000 0.0000
vn -0.0000 0.0000 1.0000
vn -1.0000 0.0000 0.0000
vn 1.0000 0.0000 0.0000
vn 0.0000 1.0000 0.0000
vn -0.9487 0.3162 -0.0000
vn 0.8321 0.5547 0.0000
vn -0.8321 0.5547 0.0000
vn 0.9487 0.3162 -0.0000
vn 0.0000 0.2807 0.9598
vn 0.0000 0.2501 -0.9682
vn 0.0000 0.9873 0.1586
vn -0.9950 0.0995 0.0000
usemtl Lathe
s off
f 22/1/1 25/2/1 26/3/1 23/4/1
f 30/5/1 33/6/1 34/7/1 31/8/1
f 1/9/2 16/10/2 39/11/2 37/12/2
f 6/13/3 53/14/3 55/15/3 50/16/3
f 13/17/2 22/18/2 23/19/2 24/20/2
f 19/21/3 13/22/3 24/23/3 27/24/3
f 13/22/4 19/21/4 25/25/4 22/26/4
f 34/27/5 21/28/5 28/29/5 31/30/5
f 28/31/3 21/32/3 32/33/3 29/34/3
f 28/35/2 29/36/2 30/37/2 31/38/2
f 7/39/2 5/40/2 38/41/2 40/42/2
f 5/43/3 18/44/3 36/45/3 38/46/3
f 7/47/5 20/48/5 18/49/5 5/50/5
f 42/51/1 20/52/1 7/53/1 40/54/1
f 41/55/1 39/56/1 16/57/1 3/58/1
f 1/59/4 17/60/4 3/58/4 16/57/4
f 3/58/4 17/60/4 2/61/4 57/62/4
f 41/55/1 3/58/1 57/62/1 59/63/1
f 42/51/1 60/64/1 58/65/1 20/52/1
f 43/66/1 59/63/1 57/62/1 4/67/1
f 58/65/1 60/64/1 44/68/1 8/69/1
f 56/70/3 54/71/3 9/72/3 47/73/3
f 2/61/4 56/74/4 4/67/4 57/62/4
f 44/68/1 43/66/1 10/75/1 46/76/1
f 54/71/3 56/70/3 2/77/3 49/78/3
f 9/79/6 10/80/6 45/81/6 47/82/6
f 11/83/1 8/69/1 44/68/1 46/76/1
f 12/84/5 53/85/5 8/86/5 11/87/5
f 12/88/6 11/87/6 46/89/6 48/90/6
f 58/91/5 8/86/5 53/85/5 6/92/5
f 6/92/5 18/49/5 20/48/5 58/91/5
f 19/21/3 27/24/3 51/93/3 14/94/3
f 52/95/3 32/33/3 21/32/3 15/96/3
f 17/97/3 1/98/3 37/99/3 35/100/3
f 14/94/4 61/101/4 25/25/4 19/21/4
f 69/102/3 66/103/3 75/104/3 76/105/3
f 14/94/3 51/93/3 69/102/3 72/106/3
f 52/95/3 15/96/3 71/107/3 66/103/3
f 61/101/4 14/94/4 72/108/4 70/109/4
f 15/110/5 21/28/5 34/27/5 62/111/5
f 2/61/4 17/60/4 25/25/4 61/101/4
f 26/112/2 25/113/2 17/114/2 35/115/2
f 33/116/2 36/117/2 18/118/2 34/119/2
f 6/92/5 62/111/5 34/27/5 18/49/5
f 49/120/6 2/121/6 61/122/6 63/123/6
f 50/124/6 64/125/6 62/126/6 6/127/6
f 77/128/7 64/129/7 50/130/7 79/131/7
f 66/132/8 71/133/8 68/134/8 65/135/8
f 63/136/1 61/137/1 70/138/1 67/139/1
f 15/110/5 62/111/5 68/134/5 71/133/5
f 69/140/9 67/141/9 70/109/9 72/108/9
f 66/103/3 69/102/3 51/93/3 52/95/3
f 74/142/4 67/141/4 69/140/4 76/143/4
f 62/144/1 64/145/1 65/146/1 68/147/1
f 42/148/2 36/149/2 35/150/2 41/151/2
f 44/68/1 60/64/1 59/63/1 43/66/1
f 73/152/5 75/153/5 66/132/5 65/135/5
f 59/63/1 60/64/1 42/51/1 41/55/1
f 9/79/6 48/90/6 46/89/6 10/80/6
f 79/154/6 80/155/6 78/156/6 77/157/6
f 49/158/10 63/159/10 78/160/10 80/161/10
f 55/15/3 48/162/3 9/72/3 54/71/3
f 4/67/1 45/163/1 10/75/1 43/66/1
f 54/71/3 49/78/3 50/16/3 55/15/3
f 53/14/3 12/164/3 48/162/3 55/15/3
f 79/165/11 50/166/11 49/167/11 80/168/11
f 77/169/12 78/170/12 63/171/12 64/172/12
f 75/173/13 73/174/13 74/175/13 76/176/13
f 67/139/1 74/177/1 73/178/1 65/146/1
f 65/146/1 64/145/1 63/136/1 67/139/1
f 27/24/3 32/33/3 52/95/3 51/93/3
f 27/179/2 26/180/2 33/181/2 32/182/2
f 29/183/4 32/184/4 33/185/4 30/186/4
f 24/187/5 23/188/5 26/189/5 27/190/5
f 35/191/2 36/192/2 33/193/2 26/194/2
f 37/195/5 39/196/5 41/197/5 35/198/5
f 36/199/4 42/200/4 40/201/4 38/202/4
f 47/203/14 45/204/14 4/67/14 56/74/14
