# Blender v2.78 (sub 5) OBJ File: 'lathe.blend'
# www.blender.org
mtllib blade.mtl
o blade
v 0.320208 0.200807 0.850000
v 0.320208 0.750437 0.850000
v 0.320208 0.200807 1.050000
v 0.320208 0.750437 1.050000
v 0.691688 0.200807 0.850000
v 0.691688 0.750437 0.850000
v 0.691688 0.200807 1.050000
v 0.691688 0.750437 1.050000
v 0.350000 0.750440 0.887452
v 0.350000 0.750440 1.022555
v 0.650000 0.750440 1.022555
v 0.650000 0.750440 0.887452
v 0.400000 0.830830 0.955004
v 0.600000 0.830830 0.955004
vt 0.757812 0.578125
vt 0.789062 0.578125
vt 0.789062 0.507812
vt 0.757812 0.507812
vt 0.632812 0.578125
vt 0.687500 0.578125
vt 0.687500 0.507812
vt 0.632812 0.507812
vt 0.828125 0.507812
vt 0.796875 0.507812
vt 0.796875 0.578125
vt 0.828125 0.578125
vt 0.750000 0.507812
vt 0.695312 0.507812
vt 0.695312 0.578125
vt 0.750000 0.578125
vt 0.835938 0.562500
vt 0.867188 0.562500
vt 0.867188 0.507812
vt 0.835938 0.507812
vt 0.820312 0.593750
vt 0.812500 0.601562
vt 0.812500 0.625000
vt 0.820312 0.632812
vt 0.773438 0.593750
vt 0.781250 0.601562
vt 0.773438 0.632812
vt 0.781250 0.625000
vt 0.742188 0.640625
vt 0.718750 0.640625
vt 0.710938 0.656250
vt 0.750000 0.656250
vt 0.742188 0.609375
vt 0.750000 0.593750
vt 0.710938 0.593750
vt 0.718750 0.609375
vt 0.703125 0.609375
vt 0.718750 0.625000
vt 0.703125 0.640625
vt 0.742188 0.625000
vt 0.757812 0.640625
vt 0.757812 0.609375
vn -1.0000 0.0000 0.0000
vn 0.0000 0.0000 1.0000
vn 1.0000 0.0000 0.0000
vn 0.0000 0.0000 -1.0000
vn 0.0000 -1.0000 0.0000
vn -0.0001 1.0000 0.0000
vn 0.0000 1.0000 0.0001
vn 0.0000 1.0000 -0.0001
vn 0.0001 1.0000 0.0000
vn 0.0000 0.6433 -0.7656
vn 0.0000 0.6433 0.7656
vn -0.8492 0.5281 0.0000
vn 0.8492 0.5281 0.0000
usemtl Lathe
s off
f 1/1/1 3/2/1 4/3/1 2/4/1
f 3/5/2 7/6/2 8/7/2 4/8/2
f 7/9/3 5/10/3 6/11/3 8/12/3
f 5/13/4 1/14/4 2/15/4 6/16/4
f 3/17/5 1/18/5 5/19/5 7/20/5
f 4/21/6 10/22/6 9/23/6 2/24/6
f 8/25/7 11/26/7 10/22/7 4/21/7
f 6/27/8 2/24/8 9/23/8 12/28/8
f 6/27/9 12/28/9 11/26/9 8/25/9
f 13/29/10 14/30/10 12/31/10 9/32/10
f 13/33/11 10/34/11 11/35/11 14/36/11
f 10/37/12 13/38/12 9/39/12
f 14/40/13 11/41/13 12/42/13
