# Blender v2.78 (sub 5) OBJ File: 'lathe.blend'
# www.blender.org
mtllib lathebase.mtl
o lathebase
v 0.000000 0.520671 1.159222
v 0.000000 0.700000 1.159222
v 0.000000 0.520671 0.759222
v 0.000000 0.700000 0.759222
v 1.000000 0.520671 1.159222
v 1.000000 0.700000 1.159222
v 1.000000 0.520671 0.759222
v 1.000000 0.700000 0.759222
v 0.050000 0.520672 0.759223
v 0.150000 0.520672 0.759224
v 0.050000 0.520672 1.159223
v 0.150000 0.520672 1.159224
v 0.050000 0.700000 1.159223
v 0.150000 0.700000 1.159224
v 0.050000 0.700000 0.759223
v 0.150000 0.700000 0.759224
v 0.050000 0.420672 0.759223
v 0.150000 0.420672 0.759224
v 0.050000 0.420672 1.159223
v 0.150000 0.420672 1.159224
v 0.950000 0.520672 0.759222
v 0.850000 0.520672 0.759223
v 0.950000 0.520672 1.159222
v 0.850000 0.520672 1.159223
v 0.950000 0.700000 1.159222
v 0.850000 0.700000 1.159223
v 0.950000 0.700000 0.759222
v 0.850000 0.700000 0.759223
v 0.950000 0.420672 0.759222
v 0.850000 0.420672 0.759223
v 0.950000 0.420672 1.159222
v 0.850000 0.420672 1.159223
vt 0.890625 0.226562
vt 0.890625 0.250000
vt 0.843750 0.250000
vt 0.843750 0.226562
vt 0.687500 0.492188
vt 0.687500 0.445312
vt 0.703125 0.445312
vt 0.703125 0.492188
vt 0.695312 0.226562
vt 0.695312 0.250000
vt 0.648438 0.250000
vt 0.648438 0.226562
vt 0.828125 0.367188
vt 0.828125 0.382812
vt 0.812500 0.382812
vt 0.812500 0.367188
vt 0.828125 0.437500
vt 0.812500 0.437500
vt 0.812500 0.390625
vt 0.828125 0.390625
vt 0.710938 0.460938
vt 0.710938 0.445312
vt 0.726562 0.445312
vt 0.726562 0.460938
vt 0.804688 0.445312
vt 0.804688 0.492188
vt 0.789062 0.492188
vt 0.789062 0.445312
vt 0.710938 0.312500
vt 0.726562 0.312500
vt 0.726562 0.335938
vt 0.710938 0.335938
vt 0.812500 0.273438
vt 0.812500 0.226562
vt 0.828125 0.226562
vt 0.828125 0.273438
vt 0.835938 0.445312
vt 0.851562 0.445312
vt 0.851562 0.492188
vt 0.835938 0.492188
vt 0.828125 0.312500
vt 0.828125 0.335938
vt 0.812500 0.335938
vt 0.812500 0.312500
vt 0.710938 0.273438
vt 0.710938 0.226562
vt 0.726562 0.226562
vt 0.726562 0.273438
vt 0.726562 0.390625
vt 0.726562 0.437500
vt 0.710938 0.437500
vt 0.710938 0.390625
vt 0.812500 0.445312
vt 0.828125 0.445312
vt 0.828125 0.460938
vt 0.812500 0.460938
vt 0.734375 0.445312
vt 0.750000 0.445312
vt 0.750000 0.492188
vt 0.734375 0.492188
vt 0.726562 0.382812
vt 0.710938 0.382812
vt 0.710938 0.367188
vt 0.726562 0.367188
vt 0.710938 0.390625
vt 0.710938 0.437500
vt 0.703125 0.437500
vt 0.703125 0.390625
vt 0.703125 0.273438
vt 0.703125 0.226562
vt 0.835938 0.312500
vt 0.835938 0.335938
vt 0.835938 0.281250
vt 0.835938 0.304688
vt 0.828125 0.304688
vt 0.828125 0.281250
vt 0.812500 0.304688
vt 0.812500 0.281250
vt 0.726562 0.437500
vt 0.726562 0.390625
vt 0.812500 0.390625
vt 0.812500 0.437500
vt 0.726562 0.281250
vt 0.726562 0.304688
vt 0.835938 0.437500
vt 0.828125 0.437500
vt 0.828125 0.390625
vt 0.835938 0.390625
vt 0.703125 0.312500
vt 0.703125 0.335938
vt 0.835938 0.226562
vt 0.835938 0.273438
vt 0.703125 0.281250
vt 0.710938 0.281250
vt 0.710938 0.304688
vt 0.703125 0.304688
vn -1.0000 -0.0000 0.0000
vn 1.0000 0.0000 -0.0000
vn 0.0000 0.0000 -1.0000
vn 0.0000 -1.0000 0.0000
vn -0.0000 0.0000 1.0000
vn 0.0000 1.0000 0.0000
usemtl Lathe
s off
f 1/1/1 2/2/1 4/3/1 3/4/1
f 11/5/1 9/6/1 17/7/1 19/8/1
f 7/9/2 8/10/2 6/11/2 5/12/2
f 9/13/3 10/14/3 18/15/3 17/16/3
f 17/17/4 18/18/4 20/19/4 19/20/4
f 12/21/5 11/22/5 19/23/5 20/24/5
f 10/25/2 12/26/2 20/27/2 18/28/2
f 11/29/5 12/30/5 14/31/5 13/32/5
f 14/33/6 16/34/6 15/35/6 13/36/6
f 23/37/2 31/38/2 29/39/2 21/40/2
f 23/41/5 25/42/5 26/43/5 24/44/5
f 25/45/6 27/46/6 28/47/6 26/48/6
f 29/49/4 31/50/4 32/51/4 30/52/4
f 24/53/5 32/54/5 31/55/5 23/56/5
f 22/57/1 30/58/1 32/59/1 24/60/1
f 21/61/3 29/62/3 30/63/3 22/64/3
f 7/65/4 5/66/4 23/67/4 21/68/4
f 6/69/6 8/70/6 27/46/6 25/45/6
f 5/71/5 6/72/5 25/42/5 23/41/5
f 8/73/3 7/74/3 21/75/3 27/76/3
f 22/77/3 28/78/3 27/76/3 21/75/3
f 14/31/5 12/30/5 24/44/5 26/43/5
f 12/79/4 10/80/4 22/81/4 24/82/4
f 28/47/6 16/34/6 14/33/6 26/48/6
f 16/83/3 28/78/3 22/77/3 10/84/3
f 3/85/4 9/86/4 11/87/4 1/88/4
f 1/89/5 11/29/5 13/32/5 2/90/5
f 4/91/6 2/92/6 13/36/6 15/35/6
f 4/93/3 15/94/3 9/95/3 3/96/3
f 10/84/3 9/95/3 15/94/3 16/83/3
