# Blender v2.78 (sub 5) OBJ File: 'lathe.blend'
# www.blender.org
mtllib smallpushrods.mtl
o smallpushrods_smallpushrod
v 0.856693 0.565443 0.769071
v 0.856693 0.651530 0.769071
v 0.856693 0.565443 0.252204
v 0.856693 0.651530 0.252204
v 0.942779 0.565443 0.769071
v 0.942779 0.651530 0.769071
v 0.942779 0.565443 0.252204
v 0.942779 0.651530 0.252204
v 0.056693 0.565443 0.769071
v 0.056693 0.651530 0.769071
v 0.056693 0.565443 0.252204
v 0.056693 0.651530 0.252204
v 0.142780 0.565443 0.769071
v 0.142780 0.651530 0.769071
v 0.142780 0.565443 0.252204
v 0.142780 0.651530 0.252204
vt 0.968750 0.312500
vt 0.968750 0.328125
vt 0.906250 0.328125
vt 0.906250 0.312500
vt 0.976562 0.289062
vt 0.992188 0.289062
vt 0.992188 0.304688
vt 0.976562 0.304688
vt 0.968750 0.359375
vt 0.968750 0.375000
vt 0.906250 0.375000
vt 0.906250 0.359375
vt 0.882812 0.289062
vt 0.898438 0.289062
vt 0.898438 0.304688
vt 0.882812 0.304688
vt 0.968750 0.289062
vt 0.968750 0.304688
vt 0.906250 0.304688
vt 0.906250 0.289062
vt 0.906250 0.351562
vt 0.906250 0.335938
vt 0.968750 0.335938
vt 0.968750 0.351562
vt 0.968750 0.210938
vt 0.968750 0.226562
vt 0.906250 0.226562
vt 0.906250 0.210938
vt 0.992188 0.203125
vt 0.976562 0.203125
vt 0.976562 0.187500
vt 0.992188 0.187500
vt 0.906250 0.273438
vt 0.906250 0.257812
vt 0.968750 0.257812
vt 0.968750 0.273438
vt 0.882812 0.187500
vt 0.898438 0.187500
vt 0.898438 0.203125
vt 0.882812 0.203125
vt 0.968750 0.187500
vt 0.968750 0.203125
vt 0.906250 0.203125
vt 0.906250 0.187500
vt 0.906250 0.250000
vt 0.906250 0.234375
vt 0.968750 0.234375
vt 0.968750 0.250000
vn -1.0000 0.0000 0.0000
vn 0.0000 0.0000 -1.0000
vn 1.0000 0.0000 0.0000
vn 0.0000 0.0000 1.0000
vn 0.0000 -1.0000 -0.0000
vn 0.0000 1.0000 0.0000
usemtl Lathe
s off
f 1/1/1 2/2/1 4/3/1 3/4/1
f 3/5/2 4/6/2 8/7/2 7/8/2
f 7/9/3 8/10/3 6/11/3 5/12/3
f 5/13/4 6/14/4 2/15/4 1/16/4
f 3/17/5 7/18/5 5/19/5 1/20/5
f 8/21/6 4/22/6 2/23/6 6/24/6
f 9/25/1 10/26/1 12/27/1 11/28/1
f 11/29/2 12/30/2 16/31/2 15/32/2
f 15/33/3 16/34/3 14/35/3 13/36/3
f 13/37/4 14/38/4 10/39/4 9/40/4
f 11/41/5 15/42/5 13/43/5 9/44/5
f 16/45/6 12/46/6 10/47/6 14/48/6
